# xmcd
#
# Track frame offsets: 
#        182
#        11600
#        28130
#        44537
#        60575
#        75330
#        90212
#        105047
#        119490
#        134092
#        153135
#        164960
#        180762
#        193332
#        207465
#        222957
#        238342
#        255225
#        273885
#
# Disc length: 3892 seconds
#
# Revision: 5
# Processed by: cddbd v1.5.2PL0 Copyright (c) Steve Scherf et al.
# Submitted via: ExactAudioCopyFreeDBPlugin 1.0
#
DISCID=000f3213
DTITLE=Jr. Walker and the All Stars - Nothin' But Soul:  The Singles 1
DTITLE=962-1983
DYEAR=1994
DGENRE=Rhythm and Blues
TTITLE0=What Does it Take (To Win Your Love)
TTITLE1=These Eyes
TTITLE2=Gotta Hold on to This Feeling
TTITLE3=Do You See My Love (For You Growing)
TTITLE4=Holly Holy
TTITLE5=Carry Your Own Load
TTITLE6=Take Me Girl, I'm Ready
TTITLE7=Right on Brother and Sisters
TTITLE8=Way Back Home
TTITLE9=Walk in the Night
TTITLE10=Grove Thang
TTITLE11=Gimme That Beat - Pt. 1
TTITLE12=I Don't Need No Reason
TTITLE13=Peace and Understanding (Is Hard to Find)
TTITLE14=Dancin' Like They Do on Soul Train
TTITLE15=I'm So Glad
TTITLE16=You Ain't No Ordinary Woman
TTITLE17=Hard Love
TTITLE18=Blow the House Down
EXTD=
EXTT0=
EXTT1=
EXTT2=
EXTT3=
EXTT4=
EXTT5=
EXTT6=
EXTT7=
EXTT8=
EXTT9=
EXTT10=
EXTT11=
EXTT12=
EXTT13=
EXTT14=
EXTT15=
EXTT16=
EXTT17=
EXTT18=
PLAYORDER=
